<svg id="Layer_1" data-name="Layer 1" xmlns="http://www.w3.org/2000/svg" xmlns:xlink="http://www.w3.org/1999/xlink" viewBox="0 0 114.448 98.25"><defs><style>.cls-1{fill:url(#linear-gradient);}.cls-2,.cls-3{fill:none;stroke:#fff;}.cls-2{stroke-miterlimit:10;stroke-width:2.928px;}.cls-3{stroke-linecap:round;stroke-linejoin:round;stroke-width:2.196px;}.cls-4{fill:#ffc23b;}</style><linearGradient id="linear-gradient" x1="28.338" y1="32.082" x2="85.396" y2="32.082" gradientUnits="userSpaceOnUse"><stop offset="0" stop-color="#003d6b"/><stop offset="1" stop-color="#000b3b"/></linearGradient></defs><title>Landing de Plan de Apertura</title><path d="M22.762,73.254h.991l4.272,9.44H26.886l-1.1-2.477h-5.1l-1.111,2.477H18.49Zm2.611,6-2.129-4.767L21.1,79.252Z"/><path d="M29.873,73.321h3.508c2.115,0,3.508,1.125,3.508,2.973v.027c0,2.022-1.687,3.066-3.682,3.066H30.93v3.307H29.873Zm3.374,5.1c1.553,0,2.571-.83,2.571-2.062v-.027c0-1.339-1-2.035-2.518-2.035H30.93v4.124Z"/><path d="M38.818,73.321h6.775v.964H39.876v3.2H44.99v.964H39.876v3.28H45.66v.964H38.818Z"/><path d="M47.79,73.321h4.03a3.7,3.7,0,0,1,2.665.937,2.589,2.589,0,0,1,.723,1.848v.027a2.743,2.743,0,0,1-2.544,2.732l2.879,3.829h-1.3l-2.718-3.642H48.848v3.642H47.79Zm3.937,4.78c1.406,0,2.41-.723,2.41-1.928v-.027c0-1.151-.884-1.848-2.4-1.848H48.848v3.8Z"/><path d="M59.855,74.3H56.708v-.978h7.364V74.3H60.926v8.4H59.855Z"/><path d="M65.908,78.77v-5.45h1.058V78.7c0,2.022,1.085,3.16,2.866,3.16,1.727,0,2.825-1.044,2.825-3.093v-5.45h1.058V78.69c0,2.732-1.566,4.151-3.91,4.151C67.488,82.841,65.908,81.422,65.908,78.77Z"/><path d="M76.219,73.321h4.03a3.7,3.7,0,0,1,2.665.937,2.589,2.589,0,0,1,.723,1.848v.027a2.743,2.743,0,0,1-2.544,2.732l2.879,3.829h-1.3l-2.718-3.642H77.277v3.642H76.219Zm3.937,4.78c1.406,0,2.41-.723,2.41-1.928v-.027c0-1.151-.884-1.848-2.4-1.848H77.277v3.8Z"/><path d="M89.369,73.254h.991l4.272,9.44H93.493l-1.1-2.477h-5.1l-1.111,2.477H85.1Zm2.611,6-2.129-4.767-2.142,4.767Z"/><path d="M18.073,87h3.841c3.477,0,5.88,2.387,5.88,5.5v.032a5.539,5.539,0,0,1-5.88,5.532H18.073Zm1.249,1.154v8.756h2.592A4.283,4.283,0,0,0,26.5,92.56v-.031a4.307,4.307,0,0,0-4.584-4.378Z"/><path d="M30.115,87h8v1.138H31.364v3.777H37.4V93.05H31.364v3.873h6.828v1.138H30.115Z"/><path d="M44.813,87h3.841c3.477,0,5.88,2.387,5.88,5.5v.032a5.539,5.539,0,0,1-5.88,5.532H44.813Zm1.249,1.154v8.756h2.592a4.282,4.282,0,0,0,4.583-4.347v-.031a4.306,4.306,0,0,0-4.583-4.378Z"/><path d="M60.223,86.918h1.17l5.042,11.143H65.091l-1.3-2.924H57.773l-1.312,2.924h-1.28ZM63.3,94l-2.513-5.627L58.263,94Z"/><path d="M69.8,88.151H66.086V87h8.693v1.154H71.065v9.91H69.8Z"/><path d="M75.552,92.56v-.031A5.643,5.643,0,1,1,86.838,92.5v.032a5.643,5.643,0,1,1-11.285.031Zm9.989,0v-.031a4.4,4.4,0,0,0-4.363-4.568A4.346,4.346,0,0,0,76.849,92.5v.032A4.4,4.4,0,0,0,81.211,97.1,4.346,4.346,0,0,0,85.542,92.56Z"/><path d="M88.354,96.448l.775-.917A5.268,5.268,0,0,0,92.922,97.1c1.486,0,2.466-.79,2.466-1.881v-.032c0-1.027-.553-1.612-2.877-2.1-2.545-.553-3.714-1.375-3.714-3.193v-.032c0-1.738,1.533-3.019,3.635-3.019A5.773,5.773,0,0,1,96.32,88.2l-.727.964a4.859,4.859,0,0,0-3.193-1.2c-1.438,0-2.355.79-2.355,1.786v.031c0,1.043.569,1.628,3,2.15,2.466.537,3.6,1.438,3.6,3.13v.031c0,1.9-1.581,3.13-3.778,3.13A6.473,6.473,0,0,1,88.354,96.448Z"/><path class="cls-1" d="M30.874,14.146a5.626,5.626,0,0,0-2.536,4.392V45.624a5.626,5.626,0,0,0,2.536,4.392L54.331,63.56a5.626,5.626,0,0,0,5.072,0L82.86,50.017A5.626,5.626,0,0,0,85.4,45.624V18.539a5.626,5.626,0,0,0-2.536-4.392L59.4.6a5.626,5.626,0,0,0-5.072,0Z"/><path class="cls-2" d="M39.344,20.5a2.813,2.813,0,0,0-1.268,2.2v18.77a2.813,2.813,0,0,0,1.268,2.2L55.6,53.048a2.813,2.813,0,0,0,2.536,0L74.39,43.663a2.813,2.813,0,0,0,1.268-2.2V22.7a2.813,2.813,0,0,0-1.268-2.2L58.135,11.115a2.813,2.813,0,0,0-2.536,0Z"/><polyline class="cls-3" points="39.174 37.469 50.887 28.685 61.136 38.933 69.92 30.149"/><circle class="cls-4" cx="50.904" cy="28.728" r="2.562"/><circle class="cls-4" cx="61.117" cy="38.94" r="2.562"/><circle class="cls-4" cx="69.946" cy="30.112" r="2.562"/></svg>