<svg id="Layer_1" data-name="Layer 1" xmlns="http://www.w3.org/2000/svg" xmlns:xlink="http://www.w3.org/1999/xlink" viewBox="0 0 211.081 64.164"><defs><style>.cls-1{fill:url(#linear-gradient);}.cls-2,.cls-3{fill:none;stroke:#fff;}.cls-2{stroke-miterlimit:10;stroke-width:2.928px;}.cls-3{stroke-linecap:round;stroke-linejoin:round;stroke-width:2.196px;}.cls-4{fill:#ffc23b;}</style><linearGradient id="linear-gradient" y1="32.082" x2="57.057" y2="32.082" gradientUnits="userSpaceOnUse"><stop offset="0" stop-color="#003d6b"/><stop offset="1" stop-color="#000b3b"/></linearGradient></defs><title>Landing de Plan de Apertura</title><path d="M74.166,15.164h1.413l6.092,13.463H80.048l-1.566-3.533H71.206l-1.585,3.533H68.075Zm3.724,8.555-3.037-6.8-3.055,6.8Z"/><path d="M84.313,15.259h5c3.018,0,5,1.6,5,4.239v.039c0,2.884-2.406,4.373-5.251,4.373H85.822v4.717H84.313Zm4.812,7.276c2.215,0,3.667-1.184,3.667-2.94v-.039c0-1.91-1.433-2.9-3.59-2.9h-3.38v5.882Z"/><path d="M97.076,15.259h9.662v1.375H98.584V21.2h7.3v1.375h-7.3v4.678h8.249v1.375H97.076Z"/><path d="M109.876,15.259h5.748a5.273,5.273,0,0,1,3.8,1.337,3.694,3.694,0,0,1,1.031,2.635v.039c0,2.215-1.528,3.514-3.629,3.9l4.106,5.462H119.08L115.2,23.432h-3.82v5.195h-1.508Zm5.614,6.817c2.005,0,3.437-1.031,3.437-2.75v-.038c0-1.642-1.26-2.635-3.418-2.635h-4.125v5.423Z"/><path d="M127.088,16.653H122.6V15.259h10.5v1.394h-4.487V28.627h-1.528Z"/><path d="M135.724,23.031V15.259h1.509v7.677c0,2.884,1.546,4.506,4.086,4.506,2.464,0,4.029-1.49,4.029-4.411V15.259h1.509v7.658c0,3.9-2.235,5.919-5.576,5.919C137.978,28.836,135.724,26.812,135.724,23.031Z"/><path d="M150.436,15.259h5.747a5.274,5.274,0,0,1,3.8,1.337,3.694,3.694,0,0,1,1.031,2.635v.039c0,2.215-1.528,3.514-3.629,3.9l4.106,5.462h-1.852l-3.876-5.195h-3.82v5.195h-1.508Zm5.614,6.817c2.005,0,3.437-1.031,3.437-2.75v-.038c0-1.642-1.26-2.635-3.418-2.635h-4.125v5.423Z"/><path d="M169.194,15.164h1.414L176.7,28.627h-1.623l-1.566-3.533h-7.276l-1.585,3.533H163.1Zm3.724,8.555-3.037-6.8-3.055,6.8Z"/><path d="M73.639,34.335h4.813c4.358,0,7.369,2.99,7.369,6.893v.04c0,3.9-3.011,6.932-7.369,6.932H73.639ZM75.2,35.781V46.754h3.248A5.366,5.366,0,0,0,84.2,41.307v-.04a5.4,5.4,0,0,0-5.744-5.487Z"/><path d="M88.729,34.335H98.751v1.426H90.294v4.734H97.86v1.426H90.294v4.853H98.85V48.2H88.729Z"/><path d="M107.144,34.335h4.813c4.358,0,7.369,2.99,7.369,6.893v.04c0,3.9-3.011,6.932-7.369,6.932h-4.813Zm1.565,1.446V46.754h3.248a5.366,5.366,0,0,0,5.744-5.447v-.04a5.4,5.4,0,0,0-5.744-5.487Z"/><path d="M126.452,34.236h1.466L134.237,48.2h-1.684l-1.624-3.664h-7.547L121.738,48.2h-1.6Zm3.862,8.874-3.149-7.052L124,43.11Z"/><path d="M138.453,35.781H133.8V34.335h10.894v1.446h-4.655V48.2h-1.585Z"/><path d="M145.66,41.307v-.04a7.071,7.071,0,1,1,14.142-.04v.04a7.071,7.071,0,1,1-14.142.04Zm12.518,0v-.04a5.513,5.513,0,0,0-5.466-5.725,5.447,5.447,0,0,0-5.427,5.685v.04a5.513,5.513,0,0,0,5.467,5.724A5.446,5.446,0,0,0,158.178,41.307Z"/><path d="M161.7,46.18l.97-1.149a6.6,6.6,0,0,0,4.754,1.961c1.862,0,3.09-.991,3.09-2.357V44.6c0-1.288-.693-2.02-3.605-2.634-3.189-.693-4.655-1.723-4.655-4v-.04c0-2.179,1.922-3.783,4.556-3.783a7.235,7.235,0,0,1,4.872,1.7l-.911,1.208a6.091,6.091,0,0,0-4-1.506c-1.8,0-2.951.991-2.951,2.239v.04c0,1.307.713,2.04,3.763,2.693,3.09.674,4.516,1.8,4.516,3.922v.04c0,2.376-1.981,3.922-4.734,3.922A8.113,8.113,0,0,1,161.7,46.18Z"/><path class="cls-1" d="M2.536,14.147A5.626,5.626,0,0,0,0,18.539V45.625a5.626,5.626,0,0,0,2.536,4.392L25.993,63.56a5.626,5.626,0,0,0,5.072,0L54.522,50.017a5.626,5.626,0,0,0,2.536-4.392V18.539a5.626,5.626,0,0,0-2.536-4.392L31.065.6a5.626,5.626,0,0,0-5.072,0Z"/><path class="cls-2" d="M11.006,20.5a2.813,2.813,0,0,0-1.268,2.2v18.77a2.813,2.813,0,0,0,1.268,2.2l16.255,9.385a2.813,2.813,0,0,0,2.536,0l16.255-9.385a2.813,2.813,0,0,0,1.268-2.2V22.7a2.813,2.813,0,0,0-1.268-2.2L29.8,11.116a2.813,2.813,0,0,0-2.536,0Z"/><polyline class="cls-3" points="10.836 37.47 22.549 28.685 32.797 38.934 41.582 30.149"/><circle class="cls-4" cx="22.566" cy="28.728" r="2.562"/><circle class="cls-4" cx="32.779" cy="38.941" r="2.562"/><circle class="cls-4" cx="41.608" cy="30.113" r="2.562"/></svg>