<?xml version="1.0" encoding="utf-8"?>
<!-- Generator: Adobe Illustrator 21.1.0, SVG Export Plug-In . SVG Version: 6.00 Build 0)  -->
<svg version="1.1" id="Layer_1" xmlns="http://www.w3.org/2000/svg" xmlns:xlink="http://www.w3.org/1999/xlink" x="0px" y="0px"
	 viewBox="0 0 299.545 263.294" style="enable-background:new 0 0 299.545 263.294;" xml:space="preserve">
<style type="text/css">
	.st0{fill:#0094D4;}
	.st1{fill:#0088B7;}
	.st2{fill:#0276DD;}
	.st3{fill:#0468B2;}
	.st4{fill:#FFC23B;}
	.st5{fill:#003D6B;}
	.st6{clip-path:url(#SVGID_2_);}
	.st7{fill:none;stroke:#0276DD;stroke-width:7.5;stroke-miterlimit:10;}
	.st8{clip-path:url(#SVGID_4_);}
	.st9{fill:url(#SVGID_5_);}
	.st10{opacity:0.3;}
	.st11{fill:none;}
	.st12{fill:#999999;}
	.st13{opacity:0.12;fill:#CEDAE8;}
	.st14{opacity:0.1;}
	.st15{fill:#FFFFFF;}
	.st16{clip-path:url(#SVGID_7_);}
	.st17{fill:url(#SVGID_8_);}
	.st18{fill:url(#SVGID_9_);}
	.st19{fill:url(#SVGID_10_);}
	.st20{fill:url(#SVGID_11_);}
	.st21{fill:url(#SVGID_12_);}
	.st22{fill:url(#SVGID_13_);}
	.st23{fill:url(#SVGID_14_);}
	.st24{fill:url(#SVGID_15_);}
	.st25{fill:url(#SVGID_16_);}
	.st26{fill:none;stroke:#AEDBED;stroke-miterlimit:10;}
	.st27{fill:none;stroke:#AEDBED;stroke-width:0.9098;stroke-miterlimit:10;}
	.st28{fill:#008ED0;}
	.st29{fill:#1C1C1A;}
	.st30{fill:#FBC000;}
	.st31{fill:#299938;}
	.st32{fill:#E43211;}
	.st33{fill:#F8BF80;}
	.st34{fill:none;stroke:url(#SVGID_17_);stroke-miterlimit:10;}
	.st35{fill:none;stroke:url(#SVGID_18_);stroke-miterlimit:10;}
	.st36{fill:none;stroke:url(#SVGID_19_);stroke-miterlimit:10;}
	.st37{fill:none;stroke:url(#SVGID_20_);stroke-miterlimit:10;}
	.st38{fill:#0687C5;}
	.st39{fill:#1E1C1B;}
	.st40{fill:#EFB71C;}
	.st41{fill:#289145;}
	.st42{fill:#DB3927;}
	.st43{fill:#EEB580;}
	.st44{fill:url(#SVGID_21_);}
	.st45{fill:none;stroke:#FFFFFF;stroke-width:2.9282;stroke-miterlimit:10;}
	.st46{fill:none;stroke:#FFFFFF;stroke-width:2.1961;stroke-linecap:round;stroke-linejoin:round;stroke-miterlimit:10;}
	.st47{fill:url(#SVGID_22_);}
	.st48{fill:url(#SVGID_23_);}
	.st49{fill:url(#SVGID_24_);}
	.st50{clip-path:url(#SVGID_26_);}
	.st51{fill:none;stroke:url(#SVGID_27_);stroke-miterlimit:10;}
	.st52{fill:none;stroke:url(#SVGID_28_);stroke-miterlimit:10;}
	.st53{fill:url(#SVGID_29_);}
	.st54{fill:url(#SVGID_30_);}
	.st55{fill:none;stroke:#FFFFFF;stroke-width:7.5647;stroke-miterlimit:10;}
	.st56{fill:none;stroke:#FFFFFF;stroke-width:5.6735;stroke-linecap:round;stroke-linejoin:round;stroke-miterlimit:10;}
	.st57{fill:url(#SVGID_31_);}
	.st58{fill:#231F20;}
	.st59{fill:#FFC10E;}
	.st60{fill:#2DA34A;}
	.st61{fill:#EE4023;}
	.st62{fill:#FBBB80;}
	.st63{fill:none;stroke:#FFFFFF;stroke-miterlimit:10;}
	.st64{fill:url(#SVGID_32_);}
	.st65{fill:url(#SVGID_33_);}
	.st66{fill:url(#SVGID_34_);}
	.st67{fill:#000B3B;}
	.st68{fill:url(#SVGID_35_);}
	.st69{fill:#108FCF;}
	.st70{fill:#F9C117;}
	.st71{fill:#2B9B48;}
	.st72{fill:#E43A27;}
	.st73{fill:#F8C080;}
	.st74{fill:none;stroke:url(#SVGID_36_);stroke-miterlimit:10;}
	.st75{fill:none;stroke:url(#SVGID_37_);stroke-miterlimit:10;}
	.st76{fill:url(#SVGID_38_);}
	.st77{fill:none;stroke:url(#SVGID_39_);stroke-miterlimit:10;}
	.st78{fill:none;stroke:url(#SVGID_40_);stroke-miterlimit:10;}
	.st79{fill:url(#SVGID_41_);}
	.st80{fill:none;stroke:url(#SVGID_42_);stroke-miterlimit:10;}
	.st81{fill:none;stroke:url(#SVGID_43_);stroke-miterlimit:10;}
	.st82{fill:url(#SVGID_44_);}
	.st83{fill:none;stroke:url(#SVGID_45_);stroke-miterlimit:10;}
	.st84{fill:none;stroke:url(#SVGID_46_);stroke-miterlimit:10;}
	.st85{fill:url(#SVGID_47_);}
	.st86{fill:#00629E;stroke:#0276DD;stroke-width:5.589;stroke-miterlimit:10;}
	.st87{fill:#003D6B;stroke:#0276DD;stroke-width:5.589;stroke-miterlimit:10;}
	.st88{clip-path:url(#SVGID_49_);}
	.st89{clip-path:url(#SVGID_51_);}
	.st90{fill:none;stroke:#FFFFFF;stroke-width:3.7804;stroke-miterlimit:10;}
	.st91{fill:none;stroke:#EAA00A;stroke-width:7;stroke-linecap:round;stroke-miterlimit:10;}
	.st92{fill:#EAA00A;}
	.st93{fill:#E9E0D4;}
	.st94{fill:#3F3016;}
	.st95{fill:#FDAA11;}
	.st96{fill:#786237;}
	.st97{fill:#543D12;}
	.st98{fill:#E2D0AB;}
	.st99{fill:#F3AC1D;}
	.st100{fill:#D6B471;}
	.st101{fill:#DEAA41;}
	.st102{fill:#BE984E;}
	.st103{fill:#B37528;}
	.st104{fill:#EBB978;}
	.st105{clip-path:url(#SVGID_53_);}
	.st106{fill:#EFE1C5;}
	.st107{fill:#CD8A0C;}
	.st108{fill:#D7BD8F;}
	.st109{fill:#7C7C7C;}
	.st110{fill:#FD6120;}
	.st111{fill:none;stroke:#CD8A0C;stroke-width:0.3844;stroke-miterlimit:10;}
	.st112{fill:none;stroke:#CD8A0C;stroke-width:1.1273;stroke-miterlimit:10;}
	.st113{fill:none;stroke:#FFFFFF;stroke-width:1.1273;stroke-miterlimit:10;}
	.st114{fill:#CD8A0C;stroke:#CD8A0C;stroke-width:3.4659;stroke-miterlimit:10;}
	.st115{clip-path:url(#SVGID_55_);}
	.st116{clip-path:url(#SVGID_57_);}
	.st117{clip-path:url(#SVGID_59_);}
	.st118{fill:url(#SVGID_60_);}
	.st119{fill:none;stroke:#FFFFFF;stroke-width:5.7427;stroke-miterlimit:10;}
	.st120{fill:none;stroke:#FFFFFF;stroke-width:4.307;stroke-linecap:round;stroke-linejoin:round;stroke-miterlimit:10;}
	.st121{fill:none;stroke:#FFFFFF;stroke-width:3.0712;stroke-miterlimit:10;}
	.st122{fill:none;stroke:#FFFFFF;stroke-width:2.0815;stroke-miterlimit:10;}
	.st123{fill:none;stroke:#FFFFFF;stroke-width:2.1342;stroke-miterlimit:10;}
</style>
<g>
	<defs>
		<rect id="SVGID_6_" x="-449.455" y="369.531" width="1216" height="768"/>
	</defs>
	<clipPath id="SVGID_2_">
		<use xlink:href="#SVGID_6_"  style="overflow:visible;"/>
	</clipPath>
	<g id="Fondo_prueba_para_web.psd_1_" class="st6">
		
			<image style="overflow:visible;" width="1600" height="1066" id="Fondo_prueba_para_web" xlink:href="292353C021B7E84E.jpg"  transform="matrix(1 0 0 1 -633.4172 204.7884)">
		</image>
	</g>
</g>
<g>
	<g>
		<path class="st15" d="M61.574,189.246h2.56l11.035,24.387h-2.94l-2.836-6.399h-13.18l-2.871,6.399H50.54L61.574,189.246z
			 M68.32,204.743l-5.5-12.314l-5.535,12.314H68.32z"/>
		<path class="st15" d="M79.945,189.419h9.063c5.465,0,9.062,2.906,9.062,7.68v0.069c0,5.224-4.358,7.922-9.513,7.922h-5.88v8.544
			h-2.732V189.419z M88.662,202.598c4.013,0,6.642-2.145,6.642-5.327v-0.069c0-3.459-2.595-5.258-6.504-5.258h-6.123v10.654H88.662z
			"/>
		<path class="st15" d="M103.054,189.419h17.503v2.491h-14.771v8.268H119v2.491h-13.214v8.475h14.943v2.491h-17.676V189.419z"/>
		<path class="st15" d="M126.232,189.419h10.412c2.975,0,5.361,0.899,6.884,2.421c1.176,1.176,1.867,2.871,1.867,4.774v0.069
			c0,4.012-2.767,6.365-6.572,7.057l7.438,9.893h-3.355l-7.022-9.409h-6.918v9.409h-2.732V189.419z M136.402,201.768
			c3.632,0,6.227-1.868,6.227-4.981v-0.069c0-2.975-2.283-4.773-6.192-4.773h-7.472v9.824H136.402z"/>
		<path class="st15" d="M157.401,191.944h-8.129v-2.525h19.025v2.525h-8.129v21.689h-2.768V191.944z"/>
		<path class="st15" d="M173.038,203.498v-14.079h2.732v13.906c0,5.223,2.803,8.164,7.403,8.164c4.462,0,7.299-2.698,7.299-7.991
			v-14.079h2.732v13.872c0,7.057-4.047,10.723-10.101,10.723C177.12,214.013,173.038,210.347,173.038,203.498z"/>
		<path class="st15" d="M199.676,189.419h10.412c2.975,0,5.361,0.899,6.884,2.421c1.176,1.176,1.867,2.871,1.867,4.774v0.069
			c0,4.012-2.767,6.365-6.572,7.057l7.438,9.893h-3.355l-7.022-9.409h-6.918v9.409h-2.732V189.419z M209.846,201.768
			c3.632,0,6.227-1.868,6.227-4.981v-0.069c0-2.975-2.283-4.773-6.192-4.773h-7.472v9.824H209.846z"/>
		<path class="st15" d="M233.646,189.246h2.56l11.035,24.387h-2.94l-2.837-6.399h-13.179l-2.871,6.399h-2.803L233.646,189.246z
			 M240.392,204.743l-5.5-12.314l-5.534,12.314H240.392z"/>
	</g>
	<g>
		<path class="st15" d="M49.46,224.749h9.922c8.983,0,15.189,6.166,15.189,14.21v0.082c0,8.044-6.207,14.291-15.189,14.291H49.46
			V224.749z M52.686,227.731v22.621h6.697c7.227,0,11.841-4.9,11.841-11.229v-0.081c0-6.329-4.614-11.311-11.841-11.311H52.686z"/>
		<path class="st15" d="M80.572,224.749h20.662v2.94H83.797v9.759h15.598v2.939H83.797v10.005h17.64v2.939H80.572V224.749z"/>
		<path class="st15" d="M118.541,224.749h9.923c8.983,0,15.189,6.166,15.189,14.21v0.082c0,8.044-6.206,14.291-15.189,14.291h-9.923
			V224.749z M121.768,227.731v22.621h6.696c7.228,0,11.841-4.9,11.841-11.229v-0.081c0-6.329-4.613-11.311-11.841-11.311H121.768z"
			/>
		<path class="st15" d="M158.351,224.545h3.021l13.025,28.787h-3.471l-3.349-7.554h-15.557l-3.389,7.554h-3.308L158.351,224.545z
			 M166.312,242.838l-6.492-14.536l-6.533,14.536H166.312z"/>
		<path class="st15" d="M183.094,227.731h-9.596v-2.981h22.458v2.981h-9.596v25.602h-3.267V227.731z"/>
		<path class="st15" d="M197.954,239.122v-0.081c0-7.881,5.921-14.781,14.618-14.781s14.536,6.818,14.536,14.699v0.082
			c0,7.88-5.92,14.781-14.618,14.781C203.793,253.822,197.954,247.003,197.954,239.122z M223.761,239.122v-0.081
			c0-6.493-4.737-11.801-11.271-11.801s-11.188,5.227-11.188,11.719v0.082c0,6.492,4.736,11.8,11.27,11.8
			S223.761,245.614,223.761,239.122z"/>
		<path class="st15" d="M231.026,249.167l2.001-2.368c2.98,2.695,5.839,4.042,9.8,4.042c3.838,0,6.37-2.041,6.37-4.858v-0.082
			c0-2.654-1.43-4.165-7.432-5.431c-6.574-1.429-9.596-3.553-9.596-8.248v-0.082c0-4.491,3.961-7.799,9.392-7.799
			c4.165,0,7.146,1.185,10.045,3.512l-1.879,2.491c-2.654-2.164-5.308-3.104-8.248-3.104c-3.716,0-6.084,2.041-6.084,4.614v0.081
			c0,2.695,1.47,4.206,7.758,5.554c6.37,1.388,9.311,3.716,9.311,8.085v0.081c0,4.9-4.084,8.085-9.76,8.085
			C238.172,253.74,234.456,252.23,231.026,249.167z"/>
	</g>
	<g>
		<linearGradient id="SVGID_4_" gradientUnits="userSpaceOnUse" x1="75.9808" y1="82.881" x2="223.3838" y2="82.881">
			<stop  offset="0" style="stop-color:#003D6B"/>
			<stop  offset="1" style="stop-color:#000B3B"/>
		</linearGradient>
		<path style="fill:url(#SVGID_4_);" d="M82.532,36.547c-3.603,2.08-6.551,7.186-6.551,11.347v69.974
			c0,4.161,2.948,9.267,6.551,11.347l60.599,34.987c3.603,2.08,9.499,2.08,13.102,0l60.599-34.987
			c3.603-2.08,6.551-7.186,6.551-11.347V47.894c0-4.161-2.948-9.267-6.551-11.347L156.234,1.56c-3.603-2.08-9.499-2.08-13.102,0
			L82.532,36.547z"/>
	</g>
	<g>
		<g>
			<path class="st55" d="M104.413,52.962c-1.802,1.04-3.276,3.593-3.276,5.674v48.49c0,2.08,1.474,4.633,3.276,5.674l41.994,24.245
				c1.802,1.04,4.75,1.04,6.551,0l41.994-24.245c1.802-1.04,3.276-3.593,3.276-5.674v-48.49c0-2.08-1.474-4.633-3.276-5.674
				l-41.994-24.245c-1.802-1.04-4.75-1.04-6.551,0L104.413,52.962z"/>
		</g>
		<polyline class="st56" points="103.975,96.8 134.234,74.105 160.71,100.582 183.404,77.888 		"/>
		<g>
			<circle class="st4" cx="134.278" cy="74.216" r="6.619"/>
			<circle class="st4" cx="160.662" cy="100.6" r="6.619"/>
			<circle class="st4" cx="183.471" cy="77.794" r="6.619"/>
		</g>
	</g>
</g>
</svg>
